<?xml version="1.0" encoding="UTF-8" standalone="no"?>
<svg
   xmlns:dc="http://purl.org/dc/elements/1.1/"
   xmlns:cc="http://creativecommons.org/ns#"
   xmlns:rdf="http://www.w3.org/1999/02/22-rdf-syntax-ns#"
   xmlns:svg="http://www.w3.org/2000/svg"
   xmlns="http://www.w3.org/2000/svg"
   xmlns:xlink="http://www.w3.org/1999/xlink"
   xml:space="default"
   width="250"
   height="250"
   id="svg2"
   version="1.1">
  <metadata
     id="metadata13">
    <rdf:RDF>
      <cc:Work
         rdf:about="">
        <dc:format>image/svg+xml</dc:format>
        <dc:type
           rdf:resource="http://purl.org/dc/dcmitype/StillImage" />
        <dc:title>                      -                                  </dc:title>
      </cc:Work>
    </rdf:RDF>
  </metadata>
  <defs
     id="defs11" />
  <title
     id="title4">                      -                                  </title>
  <g
     id="g4918">
    <rect
       style="opacity:1;fill:#f8943b;fill-opacity:1;fill-rule:nonzero;stroke:none;stroke-width:1.79626811;stroke-miterlimit:4;stroke-dasharray:none;stroke-opacity:1"
       transform="matrix(-1,0,0.16229774,0.98674183,0,0)"
       y="42.690258"
       x="-116.64072"
       height="47.938221"
       width="6.508491"
       id="rect4103" />
    <path
       style="fill:none;stroke:#58b3d2;stroke-width:2.92027426px;opacity:1;stroke-opacity:1"
       id="path8-3"
       d="M 125.40473,9.4601371 H 90.361441 V 41.583137 h 35.043289 q 17.52164,0 33.58315,-16.0615 Q 141.46624,9.4601371 125.40473,9.4601371" />
  </g>
  <use
     height="100%"
     width="100%"
     id="use4936"
     transform="rotate(51.429,125,125.18802)"
     xlink:href="#g4918"
     y="0"
     x="0" />
  <use
     height="100%"
     width="100%"
     id="use4938"
     transform="rotate(102.858,125,125.18802)"
     xlink:href="#g4918"
     y="0"
     x="0" />
  <use
     height="100%"
     width="100%"
     id="use4940"
     transform="rotate(154.287,125,125.18802)"
     xlink:href="#g4918"
     y="0"
     x="0" />
  <use
     height="100%"
     width="100%"
     id="use4942"
     transform="rotate(-154.284,125,125.18802)"
     xlink:href="#g4918"
     y="0"
     x="0" />
  <use
     height="100%"
     width="100%"
     id="use4944"
     transform="rotate(-102.855,125,125.18802)"
     xlink:href="#g4918"
     y="0"
     x="0" />
  <use
     height="100%"
     width="100%"
     id="use4946"
     transform="rotate(-51.426,125,125.18802)"
     xlink:href="#g4918"
     y="0"
     x="0" />
  <path
     style="opacity:1;fill:none;fill-opacity:1;fill-rule:nonzero;stroke:#326ce5;stroke-width:18.00793881;stroke-miterlimit:4;stroke-dasharray:none;stroke-opacity:1"
     id="path4914"
     d="m 158.54978,165.58442 -39.73943,11.09121 -33.448589,-24.15429 -1.970273,-41.2111 30.991692,-27.23513 40.61629,7.249459 19.65598,36.275051 z"
     transform="matrix(0.82019848,-0.14528159,0.14528159,0.82019848,1.5986624,37.183654)" />
</svg>
